<?xml version="1.0" standalone="no"?>
<!DOCTYPE svg PUBLIC "-//W3C//DTD SVG 20010904//EN"
 "http://www.w3.org/TR/2001/REC-SVG-20010904/DTD/svg10.dtd">
<svg version="1.0" xmlns="http://www.w3.org/2000/svg"
 width="512.000000pt" height="512.000000pt" viewBox="0 0 512.000000 512.000000"
 preserveAspectRatio="xMidYMid meet">
<metadata>
Created by potrace 1.14, written by Peter Selinger 2001-2017
</metadata>
<g transform="translate(0.000000,512.000000) scale(0.100000,-0.100000)"
fill="#000000" stroke="none">
<path d="M538 4697 c-290 -232 -525 -424 -522 -426 4 -5 2114 -8 2114 -4 0 3
-1040 836 -1055 845 -6 3 -247 -183 -537 -415z"/>
<path d="M17 4052 c-16 -3 -17 -66 -17 -855 l0 -852 1060 1 c583 0 1063 3
1066 7 4 4 8 387 8 852 1 838 1 845 -19 846 -63 3 -2084 3 -2098 1z m1216
-234 c120 -33 194 -76 283 -163 87 -87 145 -184 169 -285 51 -210 0 -439 -132
-591 -89 -103 -235 -186 -369 -208 -262 -43 -524 68 -656 279 -73 117 -98 210
-99 361 0 182 79 355 217 477 62 54 193 119 276 137 88 19 228 16 311 -7z"/>
<path d="M2350 2977 c-7 -7 -5 -1045 2 -1052 2 -3 39 -14 81 -24 216 -56 396
-188 552 -406 55 -77 167 -262 257 -425 238 -429 470 -680 776 -841 188 -99
413 -168 647 -198 142 -18 178 -21 318 -27 l137 -6 0 321 c0 356 7 323 -70
336 -131 22 -338 94 -467 162 -347 182 -568 424 -873 953 -158 274 -291 493
-310 510 -3 3 -13 17 -23 32 -38 61 -156 197 -234 272 -165 159 -353 271 -578
345 -117 38 -205 58 -215 48z"/>
<path d="M17 2132 c-16 -3 -17 -80 -17 -1068 l0 -1064 213 0 214 0 -1 1067 -1
1067 -196 0 c-107 1 -203 0 -212 -2z"/>
<path d="M1717 2128 c-9 -4 -12 -64 -11 -212 l1 -206 -26 -1 c-14 0 -253 -1
-531 -2 l-505 -2 -3 -212 -2 -213 533 0 534 0 -2 -207 c-1 -115 -3 -211 -3
-214 -1 -3 -236 -5 -523 -5 -286 1 -525 -2 -530 -5 -5 -3 -8 -94 -7 -214 l3
-209 530 0 530 -1 1 -210 0 -210 212 -3 c117 -1 212 1 213 5 0 5 1 484 2 1066
2 1051 2 1057 -18 1058 -99 4 -389 3 -398 -3z"/>
</g>
</svg>
